Coordinates
version=1
nRows=4
nColumns=114
inDegrees=yes

Units are S.I. units (second, meters, Newtons, ...)
If the header above contains a line with 'inDegrees', this indicates whether rotational values are in degrees (yes) or radians (no).

endheader 
time	pelvis_tilt	pelvis_list	pelvis_rotation	pelvis_tx	pelvis_ty	pelvis_tz	hip_flexion_l	hip_adduction_l	hip_rotation_l	hip_flexion_r	hip_adduction_r	hip_rotation_r	knee_angle_l	knee_angle_r	ankle_angle_l	ankle_angle_r	subtalar_angle_l	subtalar_angle_r	mtp_angle_l	mtp_angle_r	lumbar_extension	lumbar_bending	lumbar_rotation	arm_flex_l	arm_add_l	arm_rot_l	arm_flex_r	arm_add_r	arm_rot_r	elbow_flex_l	elbow_flex_r	pro_sup_l	pro_sup_r	addbrev_l/activation	addlong_l/activation	addmagDist_l/activation	addmagIsch_l/activation	addmagMid_l/activation	addmagProx_l/activation	bflh_l/activation	bfsh_l/activation	edl_l/activation	ehl_l/activation	fdl_l/activation	fhl_l/activation	gaslat_l/activation	gasmed_l/activation	glmax1_l/activation	glmax2_l/activation	glmax3_l/activation	glmed1_l/activation	glmed2_l/activation	glmed3_l/activation	glmin1_l/activation	glmin2_l/activation	glmin3_l/activation	grac_l/activation	iliacus_l/activation	perbrev_l/activation	perlong_l/activation	piri_l/activation	psoas_l/activation	recfem_l/activation	sart_l/activation	semimem_l/activation	semiten_l/activation	soleus_l/activation	tfl_l/activation	tibant_l/activation	tibpost_l/activation	vasint_l/activation	vaslat_l/activation	vasmed_l/activation	addbrev_r/activation	addlong_r/activation	addmagDist_r/activation	addmagIsch_r/activation	addmagMid_r/activation	addmagProx_r/activation	bflh_r/activation	bfsh_r/activation	edl_r/activation	ehl_r/activation	fdl_r/activation	fhl_r/activation	gaslat_r/activation	gasmed_r/activation	glmax1_r/activation	glmax2_r/activation	glmax3_r/activation	glmed1_r/activation	glmed2_r/activation	glmed3_r/activation	glmin1_r/activation	glmin2_r/activation	glmin3_r/activation	grac_r/activation	iliacus_r/activation	perbrev_r/activation	perlong_r/activation	piri_r/activation	psoas_r/activation	recfem_r/activation	sart_r/activation	semimem_r/activation	semiten_r/activation	soleus_r/activation	tfl_r/activation	tibant_r/activation	tibpost_r/activation	vasint_r/activation	vaslat_r/activation	vasmed_r/activation	
          0.75000000	         -6.15339331	        -10.94188191	        -16.51829920	          1.71185520	          0.79770734	          0.53041462	        -29.18790601	        -26.16826357	         -9.49600724	         44.22378806	         15.87689786	         -7.46660452	         37.76810005	         64.66569676	          0.24567959	         26.38214281	         -3.10778696	        -25.54202907	         -2.67042209	         -3.17346960	         -9.30278772	         12.69379244	         -3.96298192	          6.08480635	        -15.25494977	         31.61267882	          6.68305278	        -18.84041298	         19.17506456	         32.10414233	         41.48036589	         77.29274715	         73.86776113	          0.06449881	          0.07657246	          0.07686662	          0.04468242	          0.11541902	          0.04107116	          0.01471002	          0.05593806	          0.06799639	          0.06890873	          0.05214528	          0.04668076	          0.01753829	          0.02113263	          0.01755485	          0.01482663	          0.01353985	          0.03359057	          0.01858006	          0.01673976	          0.03668811	          0.01719290	          0.03746368	          0.05174881	          0.15920358	          0.03162163	          0.02580440	          0.03939828	          0.09979735	          0.05509912	          0.06628878	          0.01580677	          0.01742191	          0.01173380	          0.03321515	          0.19370503	          0.07308989	          0.04370901	          0.02931062	          0.03901896	          0.02446179	          0.02935840	          0.08939678	          0.33073138	          0.02154440	          0.02789462	          0.09670169	          0.04299006	          0.06961610	          0.07824799	          0.06211383	          0.07597291	          0.03415311	          0.08279518	          0.26245381	          0.55888166	          0.11225137	          0.86925529	          0.53936580	          0.16991096	          0.52033055	          0.43827490	          0.18198728	          0.01602835	          0.26752661	          0.07380950	          0.04838006	          0.11579326	          0.08334758	          0.17065999	          0.06551662	          0.06675790	          0.07663607	          0.30586462	          0.21398656	          0.07755661	          0.26828587	          0.25662893	          0.72079918	          0.28553443	
          0.76000000	         -6.40477195	        -10.67068270	        -16.73398683	          1.71392591	          0.79534215	          0.53237345	        -29.31964290	        -25.88883168	         -9.64994688	         44.55327304	         15.92695100	         -7.25159571	         37.36829124	         65.02393145	          0.50032831	         26.44919775	         -2.81739416	        -25.62920629	         -2.26890276	         -3.73046449	         -9.05865660	         12.41196751	         -3.83769430	          6.09068147	        -15.26524288	         30.97609783	          6.81754439	        -18.76565455	         18.82489348	         32.24266969	         42.08294671	         78.19300391	         75.42799802	          0.08360162	          0.11236451	          0.06558763	          0.03804884	          0.10897377	          0.03740913	          0.01380354	          0.07319861	          0.05978152	          0.06281401	          0.04954079	          0.04532519	          0.01818674	          0.02755431	          0.01512841	          0.01273878	          0.01193844	          0.02925494	          0.01599436	          0.01445754	          0.03155793	          0.01487305	          0.03538207	          0.05571067	          0.26621512	          0.02795405	          0.02273728	          0.03634484	          0.11906934	          0.04711225	          0.05720971	          0.01719206	          0.01958293	          0.01048273	          0.02801441	          0.16343899	          0.06279030	          0.03662919	          0.02449664	          0.03266728	          0.04466505	          0.05381443	          0.15886699	          0.40616612	          0.04413392	          0.04330267	          0.13468987	          0.03597137	          0.05881946	          0.06708508	          0.12374280	          0.06349806	          0.02850920	          0.10083848	          0.21896462	          0.46591681	          0.10716918	          0.72466244	          0.44976083	          0.14192479	          0.43405133	          0.36556570	          0.15225041	          0.01456493	          0.22312835	          0.23402215	          0.04966917	          0.09671690	          0.06960609	          0.14225983	          0.05469994	          0.15266222	          0.06453748	          0.25492359	          0.22661976	          0.06467166	          0.49906208	          0.21400649	          0.60089263	          0.23805031	
          0.77000000	         -6.63221247	        -10.44635856	        -16.93143180	          1.71599419	          0.79334568	          0.53425192	        -29.47204516	        -25.65252783	         -9.72099623	         44.94536672	         16.03136422	         -6.97871379	         37.00651563	         65.53712672	          0.67039655	         26.57970463	         -2.52089843	        -25.63708712	         -2.02020523	         -4.21752589	         -8.82037276	         12.17553909	         -3.74553100	          6.07805904	        -15.25072294	         30.47836680	          6.94006945	        -18.69789100	         18.52926491	         32.30596661	         42.58739301	         78.91886956	         76.69125509	          0.07186430	          0.09577568	          0.05505902	          0.03205413	          0.09137457	          0.03253913	          0.01227759	          0.07518275	          0.05759589	          0.05806192	          0.04565354	          0.03944623	          0.05071215	          0.02960800	          0.01346112	          0.01135629	          0.01087796	          0.02700015	          0.01447572	          0.01320031	          0.02930727	          0.01396937	          0.03567189	          0.04968169	          0.22624163	          0.03195716	          0.03220863	          0.03552264	          0.11366268	          0.03949073	          0.07953134	          0.01530817	          0.01758890	          0.01239183	          0.03393366	          0.13808566	          0.05331551	          0.03073076	          0.02048043	          0.02736696	          0.03772998	          0.04785559	          0.13246196	          0.33849595	          0.03692176	          0.04042082	          0.18971944	          0.05159628	          0.16098044	          0.21258034	          0.13217481	          0.19559886	          0.09602756	          0.15217985	          0.18261179	          0.38832472	          0.08935901	          0.60396835	          0.37501584	          0.11864012	          0.36192554	          0.30491809	          0.12764104	          0.08712439	          0.53797199	          0.19643237	          0.04139896	          0.16370348	          0.32990647	          0.11857199	          0.04906833	          0.16669096	          0.24584236	          0.21253947	          0.20321602	          0.31331855	          0.43271787	          0.17834614	          0.50074733	          0.19838071	
          0.78000000	         -6.82139354	        -10.29482575	        -17.13318418	          1.71801937	          0.79153502	          0.53612287	        -29.65748313	        -25.48273104	         -9.74700778	         45.40682109	         16.20420706	         -7.22762672	         36.75748601	         66.33188919	          0.68853578	         26.85815066	         -2.26083584	        -25.64470544	         -2.00046598	         -4.52169207	         -8.63216185	         12.00585760	         -3.68712419	          6.06302680	        -15.23127221	         30.25639887	          7.08532784	        -18.61943325	         18.45696632	         32.23919964	         42.90194274	         79.19489305	         77.19904362	          0.06096614	          0.08075274	          0.04617827	          0.02704655	          0.07646117	          0.02798505	          0.01199933	          0.07462354	          0.04904921	          0.05073928	          0.04333637	          0.03935133	          0.04396653	          0.03578923	          0.01475294	          0.01191602	          0.01070374	          0.05860646	          0.02328695	          0.01800981	          0.08133129	          0.03045003	          0.03993556	          0.04299219	          0.18940847	          0.03853133	          0.03683236	          0.03944986	          0.09628859	          0.10964141	          0.10851749	          0.01606903	          0.01694154	          0.01191572	          0.07469620	          0.11577125	          0.04599157	          0.02584213	          0.01714255	          0.02296900	          0.03166677	          0.04102210	          0.11045209	          0.28218150	          0.03086916	          0.03569744	          0.15868921	          0.34662117	          0.13882662	          0.17745863	          0.11052913	          0.16329407	          0.08010989	          0.12687259	          0.33584333	          0.32392376	          0.07452155	          0.50340716	          0.31310738	          0.22674617	          0.30178170	          0.25439981	          0.10785850	          0.07385861	          0.44842505	          0.16407391	          0.03457722	          0.29086826	          0.27507546	          0.53323011	          0.35754666	          0.13893104	          0.50748728	          0.27103998	          0.38964761	          0.26280105	          0.36075735	          0.14911171	          0.78746218	          0.16573535	
